<?xml version="1.0" ?><!DOCTYPE svg  PUBLIC '-//W3C//DTD SVG 1.1//EN'  'http://www.w3.org/Graphics/SVG/1.1/DTD/svg11.dtd'><svg enable-background="new 0 0 512 512" height="512px" id="Scream" version="1.1" viewBox="0 0 512 512" width="512px" xml:space="preserve" xmlns="http://www.w3.org/2000/svg" xmlns:xlink="http://www.w3.org/1999/xlink"><g><g><path fill="#61E8F1" d="M377.383,266.359c1.95-2.199,4.021-4.35,6.187-6.427c7.426-7.115,15.815-15.977,21.736-27.754    c9.307-18.517,9.688-38.992,1.07-57.654c-4.707-10.188-10.511-18.805-15.631-26.408c-3.185-4.728-6.191-9.192-8.104-12.859    c-5.27-10.108-10.574-21.619-16.217-35.191c-1.403-3.375-2.794-7.32-4.278-11.53c-1.244-3.527-2.53-7.174-3.992-10.976    c-7.135-18.566-19.623-34.314-36.113-45.542C305.689,20.885,286.579,15,266.774,15h-21.549c-19.803,0-38.914,5.885-55.267,17.019    c-10.659,7.258-19.616,16.349-26.622,27.021c-3.799,5.787-6.992,12.018-9.491,18.521c-1.462,3.802-2.748,7.45-4.005,11.011    c-1.472,4.176-2.862,8.12-4.264,11.492c-5.645,13.577-10.95,25.089-16.22,35.196c-1.911,3.667-4.919,8.131-8.103,12.858    c-5.12,7.603-10.924,16.22-15.632,26.411c-8.616,18.66-8.235,39.133,1.072,57.65c5.919,11.775,14.308,20.637,21.732,27.753    c2.168,2.078,4.239,4.229,6.189,6.428c-37.956,32.153-59.621,78.75-59.621,128.646V492c0,2.762,2.238,5,5,5h352.008    c2.762,0,5-2.238,5-5v-96.994C437.004,345.109,415.339,298.513,377.383,266.359z M427.004,487H84.996v-91.994    c0-48.553,21.807-93.783,59.829-124.092c1.04-0.83,1.706-2.039,1.853-3.361s-0.24-2.647-1.074-3.684    c-3.101-3.853-6.551-7.606-10.256-11.157c-6.812-6.527-14.479-14.604-19.718-25.024c-7.912-15.739-8.241-33.129-0.929-48.966    c4.372-9.462,9.938-17.727,14.849-25.019c3.345-4.966,6.504-9.658,8.675-13.821c5.404-10.365,10.83-22.134,16.587-35.98    c1.507-3.626,2.941-7.696,4.472-12.038c1.222-3.462,2.484-7.042,3.896-10.715c2.243-5.837,5.108-11.43,8.517-16.62    c6.283-9.571,14.321-17.728,23.892-24.244C210.273,30.285,227.438,25,245.226,25h21.549c17.788,0,34.953,5.285,49.638,15.284    c14.8,10.077,26.007,24.208,32.408,40.865c1.412,3.672,2.675,7.252,3.907,10.747c1.52,4.31,2.954,8.38,4.463,12.01    c5.755,13.841,11.18,25.608,16.584,35.975c2.172,4.165,5.331,8.856,8.676,13.822c4.911,7.292,10.477,15.556,14.848,25.015    c7.313,15.839,6.984,33.23-0.927,48.969c-5.239,10.421-12.909,18.499-19.721,25.025c-3.703,3.549-7.152,7.303-10.253,11.156    c-0.834,1.037-1.221,2.362-1.074,3.685c0.146,1.321,0.813,2.53,1.853,3.36c38.021,30.31,59.828,75.539,59.828,124.092V487z"/><path fill="#61E8F1" d="M371.063,190.834c-3.396-7.351-8.064-14.286-12.581-20.992c-3.646-5.413-7.415-11.011-10.33-16.603    c-5.793-11.111-11.564-23.622-17.645-38.244c-1.808-4.348-3.447-8.997-5.033-13.493c-1.158-3.284-2.355-6.68-3.627-9.987    c-8.648-22.501-30.781-37.619-55.074-37.619h-21.547c-24.293,0-46.426,15.118-55.074,37.619c-1.271,3.307-2.469,6.703-3.627,9.987    c-1.586,4.496-3.226,9.145-5.033,13.493c-6.073,14.61-11.845,27.12-17.644,38.244c-2.915,5.592-6.686,11.189-10.331,16.603    c-4.516,6.706-9.187,13.641-12.581,20.992c-8.711,18.864,6.326,33.273,14.405,41.015c6.293,6.03,11.955,12.491,16.831,19.201    c19.899,27.393,32.391,56.547,36.122,84.307c0.227,1.691,0.423,3.385,0.584,5.037c0.133,4.521,2.93,72.306,47.121,72.306    c44.216,0,46.989-67.786,47.122-72.308c0.161-1.66,0.357-3.352,0.583-5.033c3.732-27.764,16.224-56.918,36.124-84.309    c4.873-6.71,10.536-13.17,16.829-19.201C364.737,224.108,379.774,209.699,371.063,190.834z M349.74,224.629    c-6.723,6.442-12.779,13.354-18.002,20.544c-20.871,28.727-33.991,59.453-37.943,88.854c-0.251,1.864-0.468,3.743-0.645,5.583    c-0.011,0.118-0.019,0.243-0.021,0.362c-0.015,0.628-1.913,62.728-37.129,62.728c-35.218,0-37.114-62.101-37.129-62.689    c-0.002-0.134-0.009-0.269-0.021-0.402c-0.176-1.831-0.393-3.708-0.644-5.581c-3.952-29.399-17.072-60.125-37.943-88.854    c-5.224-7.191-11.281-14.103-18.003-20.543c-11.377-10.903-17.028-19.243-12.245-29.602c3.06-6.624,7.304-12.926,11.798-19.599    c3.8-5.643,7.729-11.477,10.903-17.566c5.934-11.382,11.825-24.148,18.011-39.028c1.913-4.602,3.599-9.383,5.229-14.006    c1.136-3.22,2.31-6.549,3.53-9.726c7.175-18.666,25.557-31.207,45.74-31.207h21.547c20.184,0,38.565,12.541,45.74,31.207    c1.221,3.176,2.395,6.506,3.53,9.726c1.631,4.623,3.316,9.404,5.229,14.006c6.192,14.892,12.084,27.658,18.012,39.028    c3.175,6.089,7.104,11.923,10.903,17.565c4.493,6.673,8.737,12.976,11.797,19.599C366.769,205.387,361.117,213.727,349.74,224.629    z"/><path fill="#61E8F1" d="M229.698,119.691c-0.249-0.113-0.507-0.206-0.771-0.276c-6.631-1.784-11.293-0.03-14.034,1.755    c-6.661,4.334-8.37,12.606-8.64,14.172c-3.54,16.233-23.23,43.802-29.192,51.88c-3.777,5.119-5.854,11.007-6.004,17.027    c-0.366,14.606,10.028,19.815,10.471,20.03c0.205,0.099,0.416,0.184,0.632,0.254c0.954,0.312,1.922,0.59,2.877,0.828    c0.406,0.101,0.813,0.149,1.213,0.149c2.241,0,4.281-1.519,4.848-3.792c0.668-2.679-0.963-5.393-3.643-6.06    c-0.575-0.144-1.157-0.306-1.736-0.486c-1.109-0.697-4.842-3.58-4.665-10.673c0.1-3.958,1.501-7.879,4.055-11.338    c8.043-10.898,27.159-38.154,30.947-55.833c0.016-0.073,0.035-0.176,0.047-0.25c0.252-1.497,1.509-5.769,4.272-7.544    c1.379-0.886,3.106-1.094,5.267-0.629c1.735,1.398,10.377,10.199,5.696,43.713c-1.649,11.812-6.377,22.558-13.672,31.075    c-1.796,2.097-1.552,5.254,0.546,7.05c2.095,1.794,5.252,1.552,7.05-0.545c8.54-9.972,14.065-22.488,15.98-36.197    C247.504,129.157,231.539,120.528,229.698,119.691z"/><path fill="#61E8F1" d="M336.722,187.222c-4.054-5.492-11.841-16.405-18.454-27.788c-1.387-2.388-4.448-3.199-6.835-1.812    c-2.388,1.387-3.199,4.447-1.812,6.835c6.853,11.795,14.879,23.046,19.054,28.703c2.554,3.46,3.956,7.381,4.056,11.339    c0.179,7.18-3.647,10.045-4.64,10.665c-11.611,3.605-22.365-0.253-31.974-11.471c-7.295-8.517-12.022-19.263-13.672-31.075    c-4.68-33.512,3.96-42.313,5.695-43.712c3.381-0.726,5.071,0.343,6.062,1.239c2.048,1.854,5.209,1.696,7.063-0.351    c1.853-2.047,1.695-5.209-0.352-7.062c-2.965-2.685-8.161-5.438-16.058-3.316c-0.265,0.071-0.522,0.163-0.771,0.276    c-0.907,0.412-5.612,2.892-9.098,11.244c-4.206,10.076-5.028,24.565-2.445,43.065c1.915,13.708,7.44,26.225,15.98,36.197    c9.248,10.797,19.862,16.306,31.182,16.306c3.898,0,7.881-0.654,11.919-1.97c0.217-0.07,0.428-0.156,0.633-0.255    c0.442-0.214,10.836-5.424,10.472-20.03C342.575,198.228,340.499,192.341,336.722,187.222z"/><path fill="#61E8F1" d="M279.908,278.825c-28.639-12.714-47.79-0.112-48.591,0.43c-1.21,0.819-2.001,2.128-2.165,3.58    c-0.09,0.797-2.196,19.765-1.979,41.69c0.298,30.274,4.874,50.576,13.602,60.343c4.203,4.703,9.325,7.088,15.226,7.088    c11.447,0,19.593-8.598,24.21-25.554c0.726-2.664-0.846-5.412-3.511-6.139c-2.664-0.727-5.412,0.848-6.138,3.512    c-3.285,12.063-8.185,18.181-14.562,18.181c-3.013,0-5.481-1.191-7.768-3.75c-13.833-15.476-11.676-69.142-9.413-91.7    c4.571-2.193,16.939-6.472,34.383,0.354c0.598,6.367,1.886,22.365,1.601,39.557c-0.046,2.762,2.155,5.037,4.916,5.083    c0.028,0.001,0.057,0.001,0.085,0.001c2.723,0,4.952-2.185,4.997-4.918c0.378-22.757-1.858-42.9-1.953-43.747    C282.648,281.071,281.53,279.545,279.908,278.825z"/><path fill="#61E8F1" d="M231.461,237.424c1.094,3.485,3.688,6.206,7.116,7.464l12.306,4.517c1.65,0.605,3.384,0.908,5.117,0.908    s3.468-0.303,5.117-0.908l12.306-4.517c3.429-1.258,6.022-3.979,7.116-7.464c1.093-3.485,0.518-7.2-1.578-10.191l-13.273-18.947    c-2.211-3.157-5.833-5.042-9.688-5.042s-7.477,1.885-9.688,5.042l-13.273,18.946C230.943,230.224,230.368,233.939,231.461,237.424    z M241.229,232.97l13.273-18.947c0.476-0.678,1.143-0.779,1.498-0.779s1.022,0.101,1.498,0.779l13.273,18.947    c0.411,0.587,0.317,1.167,0.226,1.46s-0.347,0.823-1.02,1.07l-12.306,4.517c-1.078,0.396-2.266,0.396-3.344,0l-12.306-4.517    c-0.673-0.247-0.928-0.776-1.02-1.07S240.817,233.558,241.229,232.97z"/></g></g></svg>