<svg xmlns="http://www.w3.org/2000/svg" width="48" height="48" viewBox="0 0 48 48"><title>43-Movie</title><g id="_43-Movie" data-name="43-Movie"><path fill="#61e8f1" d="M47,46H24a21.995,21.995,0,1,1,12.435-3.849A1,1,0,0,0,37.567,43.8,24,24,0,1,0,24,48H47a1,1,0,0,0,0-2Z"/><path fill="#61e8f1" d="M24,15a5,5,0,1,0-5-5A5.006,5.006,0,0,0,24,15Zm0-8a3,3,0,1,1-3,3A3,3,0,0,1,24,7Z"/><path fill="#61e8f1" d="M19,38a5,5,0,1,0,5-5A5.006,5.006,0,0,0,19,38Zm8,0a3,3,0,1,1-3-3A3,3,0,0,1,27,38Z"/><path fill="#61e8f1" d="M37,35a5,5,0,1,0-5-5A5.006,5.006,0,0,0,37,35Zm0-8a3,3,0,1,1-3,3A3,3,0,0,1,37,27Z"/><path fill="#61e8f1" d="M11,25a5,5,0,1,0,5,5A5.006,5.006,0,0,0,11,25Zm0,8a3,3,0,1,1,3-3A3,3,0,0,1,11,33Z"/><path fill="#61e8f1" d="M37,23a5,5,0,1,0-5-5A5.006,5.006,0,0,0,37,23Zm0-8a3,3,0,1,1-3,3A3,3,0,0,1,37,15Z"/><path fill="#61e8f1" d="M11,13a5,5,0,1,0,5,5A5.006,5.006,0,0,0,11,13Zm0,8a3,3,0,1,1,3-3A3,3,0,0,1,11,21Z"/><path fill="#61e8f1" d="M30,24a6,6,0,1,0-6,6,1,1,0,0,0,0-2,4,4,0,1,1,4-4,1,1,0,0,0,2,0Z"/><path fill="#61e8f1" d="M26.707,25.293l-2-2a1,1,0,0,0-1.414,1.414l2,2a1,1,0,0,0,1.414-1.414Z"/></g></svg>