<?xml version="1.0" ?><svg height="64" id="svg8" version="1.1" viewBox="0 0 16.933333 16.933334" width="64" xmlns="http://www.w3.org/2000/svg" xmlns:cc="http://creativecommons.org/ns#" xmlns:dc="http://purl.org/dc/elements/1.1/" xmlns:inkscape="http://www.inkscape.org/namespaces/inkscape" xmlns:rdf="http://www.w3.org/1999/02/22-rdf-syntax-ns#" xmlns:sodipodi="http://sodipodi.sourceforge.net/DTD/sodipodi-0.dtd" xmlns:svg="http://www.w3.org/2000/svg"><defs id="defs2"/><g id="layer1"><path d="M 15.996094,0 C 7.1715943,3.7795276e-6 0,7.1716812 0,15.996094 c 0,8.824411 7.1715947,16.001953 16,16.001953 1.009931,-0.006 1.941229,-0.09101 2.927734,-0.285156 1.70684,1.162653 3.655334,2.088729 5.771485,2.654297 2.079009,0.548764 4.234638,0.74493 6.378906,0.570312 0.942359,-0.07223 1.267058,-1.291572 0.486328,-1.824219 C 29.469415,31.67907 27.721525,29.754934 26.662109,27.931641 30.251419,24.638805 31.998976,20.392952 32,16 32,7.171888 24.820589,-3.7795272e-6 15.996094,0 Z m 17.943359,0 c -0.683554,-0.0016667 -1.361299,0.03136269 -2.042969,0.07421875 -0.552862,0.02948031 -0.974943,0.501935 -0.943359,1.05468745 0.03364,0.5499221 0.5027,0.9691604 1.052734,0.9375 C 32.654774,2.0215092 33.305041,2.012548 33.955078,2 34.510449,1.9981208 34.957461,1.5436189 34.951172,0.98828125 34.945125,0.43580768 34.491926,-0.00627756 33.939453,0 Z m 4.03125,0.27148438 c -0.507992,-0.0188976 -0.95576,0.35056311 -1.025391,0.86523442 -0.07226,0.5459913 0.309735,1.0486638 0.855469,1.1230468 0.688097,0.089873 1.293775,0.2133201 1.896485,0.3320313 0.540223,0.1164434 1.073489,-0.227244 1.189453,-0.7675781 C 41.003166,1.2839943 40.659458,0.75072153 40.119141,0.63476562 39.413253,0.47070011 38.681662,0.37224371 37.970703,0.27148438 Z m 5.916016,1.42773442 c -0.501835,-0.062472 -0.925695,0.240771 -1.074219,0.6621093 -0.184403,0.5218753 0.09086,1.0945908 0.613281,1.2773438 0.607635,0.2053723 1.196453,0.460375 1.78711,0.7089843 0.507515,0.2241185 1.099482,-0.0068 1.320312,-0.515625 C 46.75646,3.3224884 46.521487,2.7277389 46.009766,2.5097656 45.235027,2.1769136 44.057553,1.7017098 43.886719,1.6992188 Z M 15.996094,2 C 23.739679,2 30,8.2525263 30,15.996094 29.999233,19.269241 28.855404,22.40753 26.814453,24.890625 25.460516,22.66484 23.444396,20.895113 21.035156,19.851562 22.25146,18.591895 23.001953,16.880699 23.001953,15 c 0,-3.853963 -3.151887,-6.9980469 -7.005859,-6.9980469 -3.853977,0 -6.9980471,3.1440839 -6.9980471,6.9980469 0,1.880699 0.7503402,3.591895 1.9648441,4.851562 C 8.5526904,20.895839 6.5336957,22.667715 5.1796875,24.894531 3.1918343,22.476771 2,19.377427 2,15.996094 2,8.2525263 8.2525044,1.9999992 15.996094,2 Z m 33.267578,2.2851562 c -0.407766,-0.049557 -0.761285,0.1661896 -0.958984,0.4609376 -0.293141,0.4706078 -0.146043,1.0903418 0.326171,1.3808593 0.554196,0.3395452 1.08962,0.7073504 1.623047,1.078125 0.452871,0.3122948 1.073868,0.199194 1.388672,-0.2519531 0.318879,-0.4523301 0.2091,-1.0770128 -0.24414,-1.3945312 C 50.840553,5.160656 50.263924,4.7959872 49.685547,4.4296875 49.541207,4.3471426 49.399587,4.3016766 49.263672,4.2851562 Z m 4.539062,3.6464844 c -0.237996,0.01561 -0.445369,0.1259904 -0.611328,0.2988282 -0.381577,0.3961288 -0.370465,1.0262983 0.02344,1.4101562 0.478696,0.437027 0.920308,0.910749 1.365234,1.380859 0.374287,0.409347 1.010925,0.435406 1.417969,0.05859 0.407199,-0.376388 0.429463,-1.012934 0.05078,-1.4179686 C 55.590167,9.1511755 55.097867,8.6749961 54.601562,8.2011719 54.309435,7.995168 54.040743,7.9160263 53.802734,7.9316406 Z m 4.095704,4.5351564 c -0.252851,-0.02003 -0.489767,0.05987 -0.646485,0.171875 -0.453657,0.312484 -0.568641,0.931936 -0.257812,1.386719 0.37946,0.523878 0.710395,1.079338 1.046875,1.630859 0.285354,0.472969 0.900148,0.625283 1.373046,0.339844 0.472963,-0.285347 0.625259,-0.900157 0.339844,-1.373047 -0.341442,-0.596589 -0.725157,-1.162501 -1.115234,-1.726563 -0.218608,-0.28975 -0.487395,-0.409671 -0.740234,-0.429687 z M 40.996094,13 C 39.351451,13 38,14.351452 38,15.996094 v 6.001953 c 0,1.644645 1.351451,3.003902 2.996094,3.003906 h 6.001953 c 1.644646,0 2.998047,-1.359257 2.998047,-3.003906 C 49.994196,21.448465 49.549581,21.003843 49,21.001953 c -0.552461,-0.0022 -1.003962,0.443632 -1.005859,0.996094 0,0.571272 -0.424815,1.003906 -0.996094,1.003906 H 40.996094 C 40.424814,23.001953 40,22.569327 40,21.998047 V 15.996094 C 40,15.424814 40.424814,15 40.996094,15 h 4.998047 c 0.552465,0.0022 1.002009,-0.443632 1.003906,-0.996094 C 47.000247,13.448561 46.549489,12.997808 45.994141,13 Z m 9.033203,2 c -0.284863,0.0057 -0.487057,0.08669 -0.654297,0.220703 l -4.302734,3.441406 -1.365235,-1.367187 c -0.390863,-0.392586 -1.027105,-0.392586 -1.417969,0 -0.387673,0.390019 -0.387673,1.020141 0,1.410156 l 2,2.001953 c 0.360908,0.362824 0.937289,0.393105 1.335938,0.07227 l 4.998047,-4 c 0.428957,-0.345094 0.497546,-0.971878 0.154297,-1.402344 C 50.611347,15.169574 50.366567,15.031877 50.029297,15 Z m 10.572265,2.710938 c -0.111496,0.01134 -0.210246,0.03957 -0.285156,0.07227 -0.510561,0.215123 -0.750624,0.804869 -0.533203,1.314453 0.262488,0.592562 0.478028,1.204322 0.695313,1.814453 0.185801,0.519529 0.757571,0.790569 1.277343,0.605469 0.519519,-0.185798 0.788607,-0.757574 0.603516,-1.277344 -0.210542,-0.653232 -0.47286,-1.284046 -0.730469,-1.917968 -0.245503,-0.535263 -0.692799,-0.645382 -1.027344,-0.611328 z m 2.003907,5.740234 c -0.116032,-0.01519 -0.234523,-0.01146 -0.34961,0.002 -0.541746,0.110026 -0.892262,0.637895 -0.78125,1.179687 0.140523,0.669204 0.219094,1.296393 0.302735,1.890626 0.0635,0.548073 0.559262,0.941655 1.107422,0.878906 0.548163,-0.0635 0.941775,-0.55919 0.878906,-1.107422 C 63.692125,25.581437 63.546086,24.84332 63.4375,24.234375 63.280566,23.701397 62.953507,23.496808 62.605469,23.451172 Z M 34.523438,29 c -0.536698,-0.0022 -1.073305,0.0189 -1.609376,0.0625 -0.939016,0.07824 -1.259348,1.293915 -0.480468,1.824219 2.071151,1.436486 3.626805,3.104743 4.896484,5.193359 -3.396616,2.976084 -5.33098,7.416232 -5.332031,11.914063 C 31.998047,56.818547 39.169703,64 47.994141,64 56.81857,64 64,56.818547 64,47.994141 64,39.169725 56.81857,32 47.994141,32 c -1.003786,0.006 -1.949152,0.103598 -2.933594,0.296875 -1.750005,-1.203529 -3.64558,-2.10045 -5.761719,-2.666016 C 37.739568,29.219286 36.133531,29.006682 34.523438,29 Z m 28.470703,0.402344 c -0.552469,-0.0022 -1.002006,0.443632 -1.003907,0.996094 -0.0042,0.556691 -0.03628,1.11033 -0.06641,1.666015 -0.03175,0.550032 0.387575,1.023117 0.9375,1.056641 0.550031,0.03175 1.023116,-0.387578 1.056641,-0.9375 0.05125,-0.594648 0.05936,-1.191296 0.07422,-1.785156 -0.0019,-0.549576 -0.448462,-0.994193 -0.998047,-0.996094 z M 1.0859375,30.871094 C 0.50253606,30.892259 0.11346104,31.298901 0.08203125,31.814453 0.03346432,32.453671 0.01931336,33.041679 0,33.599609 0.00189732,34.152067 0.45144326,34.599837 1.0039062,34.597656 1.5534858,34.595766 1.9980611,34.162627 2,33.599609 2.0132283,33.019955 2.0487825,32.42782 2.0742188,31.931641 2.1059668,31.381612 1.7032931,30.871094 1.0859375,30.871094 Z M 35.832031,31.0625 c 1.028927,0.08084 1.847681,0.211238 2.951172,0.501953 2.030502,0.542673 3.865966,1.438267 5.484375,2.597656 0.229569,0.167237 0.519084,0.22911 0.796875,0.169922 0.963288,-0.213006 1.943163,-0.325723 2.929688,-0.332031 7.743583,0 14.003906,6.250569 14.003906,13.994141 0,3.381331 -1.192203,6.480685 -3.181641,8.898437 -1.353951,-2.227532 -3.37262,-3.998836 -5.783203,-5.042969 C 54.249368,50.589965 55.000008,48.878626 55,46.998047 55,43.144082 51.84811,40.000004 47.994141,40 c -3.853981,0 -6.998047,3.144078 -6.998047,6.998047 0,1.881086 0.749906,3.593773 1.964844,4.853515 -2.40928,1.043926 -4.42729,2.81339 -5.78125,5.039063 C 35.192407,54.473043 34,51.374924 34,47.994141 c 9.9e-4,-4.248042 1.925425,-8.259332 5.240234,-10.916016 0.377953,-0.300964 0.486127,-0.830069 0.257813,-1.255859 C 38.532022,34.039641 37.35365,32.47798 35.832031,31.0625 Z M 1.1660156,36.595703 c -0.58091449,0.04116 -1.00020045,0.558562 -0.93749998,1.109375 0.0878702,0.689191 0.20802874,1.375535 0.33203126,2.058594 0.11262614,0.539822 0.64158162,0.886883 1.18164062,0.77539 C 2.2815212,40.429759 2.6319514,39.905113 2.5253906,39.365234 2.3846826,38.698375 2.3056925,38.06741 2.2226562,37.476562 2.1631287,36.962611 1.7067953,36.557934 1.1660156,36.595703 Z m 15.8867184,1.40625 c -0.465052,-0.0049 -0.942382,0.06985 -1.417968,0.234375 C 13.757157,38.935964 13,40.396455 13,42.001953 c 0,1.642855 1.051076,2.700645 1.822266,3.410156 0.385593,0.354785 0.72023,0.657338 0.916015,0.914063 0.195772,0.256705 0.257813,0.421882 0.257813,0.671875 0.0019,0.552465 0.451447,0.998271 1.003906,0.996094 0.549583,-0.0019 0.994204,-0.446517 0.996094,-0.996094 0,-0.749979 -0.303247,-1.401985 -0.669922,-1.882813 C 16.959456,44.634403 16.538209,44.2786 16.173828,43.943359 15.445066,43.272886 15,42.75979 15,42.001953 c 0,-0.792034 0.272878,-1.503703 1.314453,-1.882812 0.918265,-0.334224 1.931324,0.03061 2.419922,0.876953 0.275066,0.479168 0.888189,0.644475 1.367187,0.36914 C 20.578057,41.087628 20.7395,40.477067 20.462891,40 19.726184,38.755012 18.447896,38.016372 17.052734,38.001953 Z M 2.6796875,42.435547 c -0.1110463,-0.01172 -0.2233963,-0.0072 -0.3320313,0.0098 -0.6699159,0.211087 -0.8879777,0.819079 -0.7167968,1.3125 0.2199609,0.651243 0.4801323,1.284652 0.7382812,1.919922 0.2151232,0.510562 0.8048674,0.748675 1.3144532,0.53125 0.5064669,-0.215149 0.7437478,-0.799076 0.53125,-1.30664 C 3.9559166,44.3079 3.7383661,43.696675 3.5214844,43.085938 3.3355687,42.652815 3.0128237,42.470889 2.6796875,42.435547 Z M 5.2695312,47.875 c -0.249702,-0.0415 -0.4989062,0.01512 -0.6855468,0.126953 -0.4729705,0.285354 -0.6252809,0.900156 -0.3398438,1.373047 0.3412082,0.596795 0.7258342,1.162875 1.1152344,1.728516 0.3124838,0.453649 0.9338836,0.56864 1.3886719,0.257812 C 7.2016971,51.048837 7.3166817,50.427439 7.0058594,49.972656 6.6268276,49.448175 6.2948125,48.89292 5.9570312,48.341797 5.769493,48.056159 5.5192329,47.916495 5.2695312,47.875 Z M 17,49.998047 c -0.552266,0 -1,0.447728 -1,1 0,0.552261 0.447734,1 1,1 0.552271,0 1,-0.447739 1,-1 0,-0.552272 -0.447729,-1 -1,-1 z m -8.3222656,2.660156 c -0.2487232,0.0015 -0.4858286,0.09989 -0.6757813,0.259766 -0.4023261,0.375647 -0.4303743,1.004115 -0.056641,1.408203 0.4550793,0.516907 0.9518725,0.992452 1.4453125,1.472656 0.3989813,0.384575 1.033369,0.369834 1.416016,-0.03125 0.379624,-0.398082 0.366858,-1.026354 -0.0293,-1.408203 -0.472468,-0.44044 -0.9130238,-0.91275 -1.3574221,-1.380859 -0.232882,-0.226436 -0.4934636,-0.32184 -0.7421875,-0.320313 z m 4.6269536,3.96875 c -0.420368,-0.06164 -0.773096,0.165848 -0.955079,0.417969 -0.312294,0.45287 -0.199194,1.073879 0.251953,1.388672 0.553835,0.406242 1.133844,0.769991 1.712891,1.136718 0.467124,0.289437 1.078382,0.146712 1.371094,-0.318359 0.294455,-0.468673 0.153185,-1.087882 -0.316406,-1.380859 -0.555321,-0.338003 -1.090659,-0.706451 -1.625,-1.076172 -0.151212,-0.09449 -0.299358,-0.147446 -0.439453,-0.167969 z m 5.039062,2.945313 c -0.406683,0.01209 -0.721343,0.273109 -0.878906,0.595703 -0.218298,0.507556 0.01776,1.096476 0.52539,1.314453 0.627942,0.290835 1.278307,0.528372 1.925782,0.767578 0.519834,0.179528 1.086951,-0.09453 1.269531,-0.613281 0.184395,-0.521877 -0.08888,-1.094593 -0.611328,-1.277344 -0.610946,-0.203528 -1.202068,-0.45932 -1.794922,-0.708984 -0.15332,-0.05813 -0.299985,-0.08213 -0.435547,-0.07813 z m 5.734375,1.816406 c -0.502282,0.0087 -0.871886,0.373077 -0.964844,0.787109 -0.116481,0.540235 0.227245,1.071541 0.767578,1.1875 0.675597,0.153714 1.361079,0.251381 2.044922,0.355469 0.548847,0.07669 1.054898,-0.308219 1.128907,-0.857422 0.07672,-0.548659 -0.306463,-1.054631 -0.855469,-1.128906 -0.765239,-0.104769 -1.451081,-0.23301 -2.121094,-0.34375 z m 7.90625,0.535156 c -0.648474,0.05571 -1.297002,0.0642 -1.947266,0.07422 -0.549571,0.006 -0.99243,0.45431 -0.990234,1.003906 0.0019,0.555368 0.45638,1.004336 1.011719,0.998047 0.683174,0.0012 1.361491,-0.03325 2.042968,-0.07422 0.552862,-0.02948 0.976891,-0.503884 0.945313,-1.05664 -0.02948,-0.555931 -0.503984,-0.964192 -1.0625,-0.945313 z" id="path872" style="opacity:1;fill:#61E8F1;fill-opacity:1;stroke:none;stroke-width:2;stroke-linecap:round;stroke-linejoin:round;stroke-miterlimit:4;stroke-dasharray:none;stroke-dashoffset:0;stroke-opacity:1" transform="scale(0.26458334)"/></g></svg>