<?xml version="1.0" ?><svg id="Guide" viewBox="0 0 32 32" xmlns="http://www.w3.org/2000/svg"><defs><style>.cls-1{fill:#61E8F1;}</style></defs><title/><path class="cls-1" d="M16,2A14,14,0,1,0,30,16,14,14,0,0,0,16,2Zm0,26A12,12,0,1,1,28,16,12,12,0,0,1,16,28ZM14.77,15.68A1,1,0,0,1,14.14,17a1.13,1.13,0,0,1-.32.05,1,1,0,0,1-1-.68,2,2,0,0,0-3.74,0,1,1,0,0,1-1.9-.64,4,4,0,0,1,7.54,0ZM24.14,17a1.13,1.13,0,0,1-.32.05,1,1,0,0,1-.95-.68,2,2,0,0,0-3.74,0,1,1,0,0,1-1.9-.64,4,4,0,0,1,7.54,0A1,1,0,0,1,24.14,17Z"/></svg>