<?xml version="1.0" ?><svg viewBox="0 0 512 512" xmlns="http://www.w3.org/2000/svg"><title/><g data-name="Layer 2" id="Layer_2"><path fill="#61e8f1" d="M497.95557,15.605A32.58429,32.58429,0,0,0,474.75977,6h-54.48a32.7931,32.7931,0,0,0-19.80811,58.94092L383.64136,81.7854a123.77824,123.77824,0,0,0-30.2229-6.35767,5,5,0,1,0-.83691,9.96484,113.1848,113.1848,0,0,1,30.58789,6.84375,92.93882,92.93882,0,0,1,25.69482,14.49023,77.44506,77.44506,0,0,1,17.62744,20.2207c22.397,37.03564,15.39307,92.13672-18.73584,147.39551-.02686.043-.05273.08643-.07764.12988-30.77,53.36816-108.81738,115.5542-167.7583,147.895a544.13367,544.13367,0,0,1-60.83112-39.29816l53.25348-53.30634h.00049a34.274,34.274,0,0,0,0-48.38037l-.043-.04248a33.96532,33.96532,0,0,0-24.15088-9.99023h-.00049A33.96718,33.96718,0,0,0,183.959,281.37842l-57.65179,57.70923c-24.27551-22.91821-42.95746-45.19257-54.14459-64.613-.02539-.04443-.05176-.08887-.07861-.13232-41.51172-67.19189-41.957-134.55176-1.10791-167.61621,21.88086-17.71582,54.9165-25.415,86.2124-20.09229,32.66162,5.55371,60.53223,24.6123,78.47754,53.66357a5,5,0,0,0,8.5083-.00049c18.16211-29.4165,46.437-48.54395,79.6167-53.85986a5,5,0,0,0-1.582-9.874c-33.59473,5.38232-62.54687,23.74658-82.29,52.00732-19.49707-27.88916-48.01123-46.17627-81.05371-51.79492-34.04883-5.79-70.13379,2.709-94.18115,22.17822-22.32568,18.07129-34.127,45.00635-34.127,77.894,0,32.23584,11.40332,67.74121,32.979,102.68506,11.63593,20.17773,30.84955,43.14209,55.70044,66.63251l-8.17419,8.18237L79.709,343.72266c-4.251-1.43408-8.41846-.65234-11.13623,2.083l-61.333,61.38379a10.25039,10.25039,0,0,0-2.43457,9.96143A16.80992,16.80992,0,0,0,15.79443,428.771l24.44525,7.66345A34.19113,34.19113,0,0,0,74.28174,473.7959c.25378,0,.50543-.013.75836-.01849l6.517,20.853a16.82183,16.82183,0,0,0,11.60986,11.001,12.43234,12.43234,0,0,0,2.96631.37061,9.71187,9.71187,0,0,0,6.99316-2.79736l17.15039-17.16016a5.00016,5.00016,0,1,0-7.07324-7.06934L96.18018,496.00879c-1.11719.123-4.19727-1.54-5.07764-4.36035L84.988,472.08356a34.03685,34.03685,0,0,0,13.48267-8.316l52.36688-52.41882,6.44171,22.55408a2.50427,2.50427,0,0,1,.11475.84229l-22.99023,23a4.99981,4.99981,0,1,0,7.07227,7.06934l23.13965-23.14893c2.56445-2.56494,3.41846-6.48535,2.28174-10.49854L158.925,403.2533l13.02075-13.03363a551.23743,551.23743,0,0,0,65.59821,42.23981,4.99995,4.99995,0,0,0,4.751.00049c60.38916-32.59473,141.87891-97.25684,174.00879-152.92725,17.61963-28.54541,28.65918-58.13232,31.92871-85.56982,3.09448-25.971-.79053-49.64587-11.22754-68.76947l11.832-11.84479a32.79638,32.79638,0,0,0,58.72314-20.08887v-54.46A32.62364,32.62364,0,0,0,497.95557,15.605ZM18.78076,419.22754c-2.81689-.87988-4.47607-3.978-4.35107-5.08594l61.06641-61.1167a2.55082,2.55082,0,0,1,1.00879.17041l26.67731,9.04034-53.0943,53.14716a34.02311,34.02311,0,0,0-7.49536,11.30951ZM91.396,456.7002a24.21271,24.21271,0,0,1-34.23389-34.25l58.75281-58.81128.05151-.05157L191.0332,288.4458a24.18872,24.18872,0,0,1,34.23,0l.0376.0376a24.26066,24.26066,0,0,1-.03271,34.2124L149.786,398.2525l-.02075.02075ZM497.56006,93.25977a22.80676,22.80676,0,0,1-43.33105,9.93848,5.00032,5.00032,0,0,0-8.03662-1.35205l-14.624,14.63953A87.39732,87.39732,0,0,0,415.15625,98.9541,99.90174,99.90174,0,0,0,393.7395,85.82739l18.29761-18.31323a5.00051,5.00051,0,0,0-1.4126-8.06055A22.79941,22.79941,0,0,1,420.27979,16h54.48a22.79255,22.79255,0,0,1,22.80029,22.7998Z"/></g></svg>