<?xml version="1.0" ?><!DOCTYPE svg  PUBLIC '-//W3C//DTD SVG 1.1//EN'  'http://www.w3.org/Graphics/SVG/1.1/DTD/svg11.dtd'><svg enable-background="new 0 0 91 91" height="91px" id="Layer_1" version="1.1" viewBox="0 0 91 91" width="91px" xml:space="preserve" xmlns="http://www.w3.org/2000/svg" xmlns:xlink="http://www.w3.org/1999/xlink"><g><path fill="#61E8F1" d="M84.021,45.401h-3.086l2.482-2.483c0.256-0.254,0.395-0.593,0.395-0.953c0-0.359-0.141-0.696-0.395-0.946   c-0.51-0.509-1.398-0.504-1.9,0l-2.48,2.479v-3.087c0-0.74-0.604-1.343-1.348-1.343c-0.74,0-1.344,0.603-1.344,1.343v5.777   l-5.418,5.418c-2.59-5.792-7.311-10.462-13.109-12.975c2.398-2.568,3.709-5.874,3.709-9.391c0-3.183-1.088-6.225-3.082-8.681h1.947   c0.742,0,1.348-0.603,1.348-1.343c0-0.741-0.605-1.344-1.348-1.344h-3.086c0-0.003,0-0.006,0-0.009V6.041   c0-1.439-1.172-2.61-2.611-2.61H40.761c-1.439,0-2.609,1.171-2.609,2.61v11.824c0,0.002,0,0.006,0,0.009h-3.088   c-0.742,0-1.346,0.603-1.346,1.344c0,0.74,0.604,1.343,1.346,1.343h1.945c-1.994,2.457-3.082,5.499-3.082,8.681   c0,3.517,1.311,6.822,3.707,9.391c-5.797,2.511-10.518,7.187-13.109,12.984l-5.428-5.428v-5.777c0-0.74-0.604-1.343-1.346-1.343   c-0.74,0-1.344,0.603-1.344,1.343v3.088l-2.48-2.479c-0.506-0.508-1.391-0.509-1.904-0.001c-0.521,0.522-0.521,1.373,0,1.899   l2.482,2.483h-3.086c-0.742,0-1.346,0.603-1.346,1.341c0,0.744,0.604,1.35,1.346,1.35h5.777l6.285,6.285   c-0.773,2.457-1.164,5.002-1.164,7.572c0,14.012,11.398,25.41,25.41,25.41c14.01,0,25.408-11.398,25.408-25.41   c0-2.572-0.391-5.123-1.166-7.584l6.277-6.273h5.773c0.742,0,1.348-0.605,1.348-1.35C85.368,46.004,84.763,45.401,84.021,45.401z    M47.728,84.668c-12.527,0-22.719-10.191-22.719-22.719c0-9.531,5.984-18.075,14.916-21.34c2.307,1.587,5,2.426,7.803,2.426   s5.496-0.839,7.803-2.426c8.934,3.265,14.916,11.809,14.916,21.34C70.446,74.477,60.255,84.668,47.728,84.668z M54.661,20.56   c2.656,2.125,4.176,5.279,4.176,8.681c0,3.507-1.607,6.735-4.4,8.849l-0.256,0.182c-1.893,1.359-4.123,2.077-6.453,2.077   c-2.334,0-4.564-0.718-6.455-2.078l-0.244-0.172c-2.803-2.122-4.41-5.351-4.41-8.857c0-3.401,1.52-6.556,4.176-8.681H54.661z    M43.761,17.784l-2.92,0.081V6.12l13.775-0.08l0.078,11.743H43.761z"/><path fill="#61E8F1" d="M47.72,37.431c2.936,0,5.652-1.715,6.922-4.367c0.322-0.668,0.037-1.473-0.631-1.795c-0.654-0.313-1.484-0.012-1.793,0.633   c-0.826,1.727-2.592,2.843-4.498,2.843c-1.904,0-3.67-1.116-4.496-2.843c-0.307-0.647-1.137-0.944-1.795-0.633   c-0.666,0.322-0.949,1.127-0.627,1.793C42.071,35.716,44.786,37.431,47.72,37.431z"/><path fill="#61E8F1"  d="M47.722,58.982c-1.904,0-3.457,1.551-3.457,3.455c0,1.906,1.553,3.459,3.457,3.459s3.455-1.553,3.455-3.459   C51.177,60.533,49.626,58.982,47.722,58.982z M47.722,63.205c-0.422,0-0.766-0.344-0.766-0.768c0-0.422,0.344-0.768,0.766-0.768   s0.766,0.346,0.766,0.768C48.487,62.861,48.144,63.205,47.722,63.205z"/><path fill="#61E8F1" d="M47.722,49.482c-1.904,0-3.457,1.551-3.457,3.455c0,1.906,1.553,3.457,3.457,3.457s3.455-1.551,3.455-3.457   C51.177,51.033,49.626,49.482,47.722,49.482z M47.722,53.705c-0.422,0-0.766-0.346-0.766-0.768c0-0.42,0.344-0.764,0.766-0.764   s0.766,0.344,0.766,0.764C48.487,53.359,48.144,53.705,47.722,53.705z"/><path fill="#61E8F1" d="M47.722,68.48c-1.904,0-3.457,1.553-3.457,3.457c0,1.906,1.553,3.457,3.457,3.457s3.455-1.551,3.455-3.457   C51.177,70.033,49.626,68.48,47.722,68.48z M47.722,72.703c-0.422,0-0.766-0.342-0.766-0.766s0.344-0.768,0.766-0.768   s0.766,0.344,0.766,0.768S48.144,72.703,47.722,72.703z"/><path fill="#61E8F1" d="M44.157,28.084h0.846c0.742,0,1.346-0.604,1.346-1.345s-0.604-1.345-1.346-1.345h-0.846c-0.74,0-1.344,0.604-1.344,1.345   S43.417,28.084,44.157,28.084z"/><path fill="#61E8F1" d="M50.44,28.084h0.844c0.74,0,1.344-0.604,1.344-1.345s-0.604-1.345-1.344-1.345H50.44c-0.742,0-1.346,0.604-1.346,1.345   S49.698,28.084,50.44,28.084z"/><path fill="#61E8F1" d="M16.999,31.348h-0.104c-4.32,0-8.051,3.403-8.494,7.749c-0.029,0.266,0.072,0.438,0.16,0.537   c0.127,0.139,0.311,0.22,0.504,0.22c0.313,0,0.564-0.204,0.641-0.52c0.863-3.591,3.732-5.883,7.482-5.978   c0.607-0.016,0.877-0.464,0.873-0.9C18.058,31.918,17.659,31.356,16.999,31.348z"/><path fill="#61E8F1" d="M7.802,32.143c0.289,0,0.535-0.156,0.676-0.427c1.277-2.493,3.814-4.042,6.617-4.042c0.932,0,1.857,0.167,2.752,0.498   c0.139,0.051,0.279,0.077,0.416,0.077c0.602,0,1.012-0.48,1.104-0.954c0.076-0.4-0.057-0.913-0.656-1.154   c-1.061-0.425-2.18-0.64-3.326-0.64c-3.668,0-7.018,2.231-8.336,5.552c-0.102,0.258-0.078,0.516,0.064,0.728   C7.265,32.004,7.528,32.143,7.802,32.143z"/><path fill="#61E8F1" d="M71.63,78.617c-0.402,0.199-0.586,0.568-0.488,0.982c0.109,0.469,0.541,0.82,1.004,0.82c0.143,0,0.287-0.031,0.426-0.094   c3.906-1.748,5.967-6.338,4.691-10.447c-0.088-0.289-0.316-0.467-0.6-0.467c-0.195,0-0.387,0.088-0.512,0.236   s-0.174,0.344-0.141,0.551C76.61,73.76,74.933,76.986,71.63,78.617z"/><path fill="#61E8F1" d="M71.979,84.715c0.02,0.479,0.33,0.961,0.979,0.961c0.023,0,0.047-0.002,0.072-0.002c4.727-0.25,8.617-4.453,8.494-9.18   c-0.014-0.506-0.395-0.736-0.746-0.736c-0.348,0-0.74,0.229-0.775,0.73c-0.256,3.766-3.195,6.719-6.984,7.021   C72.315,83.568,71.958,84.174,71.979,84.715z"/></g></svg>