<?xml version="1.0" encoding="iso-8859-1"?>
<!-- Generator: Adobe Illustrator 16.0.0, SVG Export Plug-In . SVG Version: 6.00 Build 0)  -->
<!DOCTYPE svg PUBLIC "-//W3C//DTD SVG 1.1//EN" "http://www.w3.org/Graphics/SVG/1.1/DTD/svg11.dtd">
<svg version="1.1" id="Capa_1" xmlns="http://www.w3.org/2000/svg" xmlns:xlink="http://www.w3.org/1999/xlink" x="0px" y="0px"
	 width="612px" height="612px" viewBox="0 0 612 612" style="enable-background:new 0 0 612 612;" xml:space="preserve">
<g>
	<g id="Shape_15">
		<g>
			<path fill="#61e8f1" d="M539.005,362.562h-466C32.747,362.562,0,395.27,0,435.469c0,40.208,32.747,72.916,73.005,72.916h466
				c40.248,0,72.995-32.708,72.995-72.916C612,395.27,579.253,362.562,539.005,362.562z M539.005,488.764h-466
				c-29.421,0-53.354-23.913-53.354-53.295s23.943-53.286,53.354-53.286h466c29.421,0,53.354,23.904,53.354,53.286
				S568.426,488.764,539.005,488.764z M530.043,387.384c-26.391,0-47.837,21.309-48.113,47.602
				c-0.276-26.283-21.723-47.602-48.114-47.602c-26.559,0-48.163,21.575-48.163,48.095c0,26.529,21.604,48.104,48.163,48.104
				c26.392,0,47.838-21.309,48.114-47.611c0.276,26.293,21.723,47.611,48.113,47.611c26.56,0,48.164-21.575,48.164-48.104
				C578.197,408.949,556.603,387.384,530.043,387.384z M433.815,463.952c-15.722,0-28.513-12.781-28.513-28.483
				c0-15.703,12.791-28.474,28.513-28.474c15.732,0,28.523,12.771,28.523,28.474C462.339,451.171,449.537,463.952,433.815,463.952z
				 M530.043,463.952c-15.731,0-28.522-12.781-28.522-28.483c0-15.703,12.791-28.474,28.522-28.474
				c15.723,0,28.514,12.771,28.514,28.474C558.557,451.171,545.766,463.952,530.043,463.952z M171.384,387.384
				c-26.391,0-47.837,21.309-48.114,47.602c-0.276-26.283-21.723-47.602-48.114-47.602c-26.559,0-48.164,21.575-48.164,48.095
				c0,26.529,21.604,48.104,48.164,48.104c26.391,0,47.837-21.309,48.114-47.611c0.276,26.293,21.723,47.611,48.114,47.611
				c26.559,0,48.164-21.575,48.164-48.104S197.943,387.384,171.384,387.384z M75.157,463.952c-15.722,0-28.513-12.781-28.513-28.483
				c0-15.703,12.791-28.474,28.513-28.474c15.732,0,28.523,12.771,28.523,28.474C103.68,451.171,90.889,463.952,75.157,463.952z
				 M171.384,463.952c-15.722,0-28.523-12.781-28.523-28.483c0-15.703,12.791-28.474,28.523-28.474
				c15.722,0,28.513,12.771,28.513,28.474C199.897,451.171,187.106,463.952,171.384,463.952z M249.64,450.272h117.872v-19.62H249.64
				V450.272z M282.081,263.877h183.662v78.482h19.65v-98.103H377.342v-68.663h-19.65v68.672h-75.61v-74.594
				c0-36.418-29.678-66.057-66.146-66.057h-46.12c-36.468,0-66.136,29.628-66.136,66.057V347.58h178.401V263.877L282.081,263.877z
				 M262.431,327.95H123.32V169.672c0-25.611,20.864-46.436,46.496-46.436h46.12c25.641,0,46.496,20.825,46.496,46.436V327.95z"/>
		</g>
	</g>
</g>
<g>
</g>
<g>
</g>
<g>
</g>
<g>
</g>
<g>
</g>
<g>
</g>
<g>
</g>
<g>
</g>
<g>
</g>
<g>
</g>
<g>
</g>
<g>
</g>
<g>
</g>
<g>
</g>
<g>
</g>
</svg>
