<?xml version="1.0" ?><!DOCTYPE svg  PUBLIC '-//W3C//DTD SVG 1.1//EN'  'http://www.w3.org/Graphics/SVG/1.1/DTD/svg11.dtd'><svg enable-background="new 0 0 512 512" height="512px" id="Witch_x5F_hat" version="1.1" viewBox="0 0 512 512" width="512px" xml:space="preserve" xmlns="http://www.w3.org/2000/svg" xmlns:xlink="http://www.w3.org/1999/xlink"><g><g><path fill="#61E8F1" d="M446.05,449.522c-14.483,8.19-32.32,15.252-53.02,21.006c-0.428-0.008-0.859,0.02-1.295,0.128    c-41.06,10.204-85.467,4.443-125.039-16.22c-37.337-19.492-71.225-34.548-101.482-45.111c29.631,4.708,59.702,7.084,89.696,7.084    c7.481,0,14.958-0.148,22.421-0.443c2.76-0.109,4.908-2.435,4.799-5.193c-0.106-2.692-2.322-4.803-4.992-4.803    c-0.067,0-0.135,0.002-0.201,0.004c-37.347,1.477-75.017-0.813-111.974-6.811c-11.898-1.93-23.091-3.521-33.583-4.785    l8.849-33.004c14.537,2.586,29.339,4.678,44.125,6.236c3.132,14.391,16.086,25.139,31.169,25.139h22.28c2.761,0,5-2.238,5-5    s-2.239-5-5-5h-22.28c-11.334,0-20.921-8.834-21.827-20.126c-0.048-0.577-0.073-1.17-0.073-1.765V292.95    c0.005-0.085,0.008-0.169,0.009-0.254c0.138-11.92,9.958-21.617,21.891-21.617h67.879c2.762,0,5-2.238,5-5s-2.238-5-5-5h-67.879    c-15.502,0-28.548,11.242-31.334,25.994c-7.706-0.932-15.45-2.038-23.15-3.308l32.504-121.226    c0.715-2.667-0.868-5.409-3.535-6.125c-2.67-0.715-5.41,0.867-6.125,3.535l-33.929,126.541c0,0.001-0.001,0.002-0.001,0.003    l-2.676,9.982l-25.945,96.766c-16.91-1.764-31.752-2.573-44.379-2.413c-2.662-0.045-5.392-0.015-8.118,0.094    c-0.439,0.018-0.855,0.109-1.257,0.231c-15.103,0.866-26.682,3.386-34.47,7.53c-2.438,1.297-3.362,4.325-2.065,6.764    c1.297,2.438,4.325,3.361,6.763,2.064c7.894-4.201,21.075-6.449,39.178-6.682c55.888,0.947,131.493,34.491,185.085,62.471    c19.42,10.14,39.956,16.873,60.741,20.088c-21.668,2.248-44.2,3.207-66.703,2.74c-0.034,0-0.069-0.001-0.104-0.001h-2.4    c-0.035,0-0.069,0.001-0.104,0.001c-49.55,1.04-98.966-4.727-139.159-16.215c-40.231-11.498-69.493-28.255-82.396-47.183    c-1.555-2.281-4.667-2.87-6.948-1.315c-2.282,1.556-2.871,4.666-1.315,6.948c27.643,40.552,116.331,67.886,218.14,67.886    c3.917,0,7.88-0.04,11.833-0.122h2.296c48.883,1.007,98.024-4.521,138.371-15.577c22.073-6.039,41.133-13.55,56.65-22.324    c2.404-1.359,3.251-4.41,1.892-6.814C451.504,449.011,448.454,448.161,446.05,449.522z M183.622,357.483    c-13.67-1.481-27.346-3.425-40.794-5.797l15.603-58.201c8.371,1.396,16.81,2.604,25.191,3.607V357.483z"/><path fill="#61E8F1" d="M486.196,407.086c-5.495-8.444-17.688-13.487-37.278-15.417c-17.451-1.719-40.792-0.848-69.634,2.579l-10.134-40.21    l-17.13-68.02l0,0l-38.157-151.517l57.446,1.949l15.625,15.103c1.985,1.918,5.151,1.864,7.069-0.12    c1.92-1.985,1.866-5.151-0.12-7.07l-17.008-16.44c-0.89-0.86-2.067-1.36-3.305-1.402l-66.01-2.24    c-1.57-0.051-3.074,0.635-4.061,1.857c-0.987,1.223-1.342,2.838-0.958,4.361l38.463,152.729    c-8.705,1.489-17.491,2.773-26.256,3.836c-0.522-2.804-1.42-5.519-2.691-8.113c-1.214-2.48-4.208-3.506-6.69-2.291    c-2.479,1.215-3.505,4.211-2.29,6.689c1.432,2.922,2.176,6.066,2.214,9.347c0.002,0.12,0.008,0.241,0.019,0.361    c0,0.002,0,0.004,0,0.006c-0.005-0.05-0.008-0.095-0.009-0.095v67.889c0,0.592-0.024,1.181-0.074,1.775    c-0.896,11.279-10.483,20.115-21.826,20.115h-16.933c-2.762,0-5,2.238-5,5s2.238,5,5,5h16.933c15.1,0,28.058-10.76,31.174-25.146    c15.299-1.604,30.74-3.812,46.026-6.582l8.688,34.487c-7.847,1.046-16.064,2.263-24.648,3.655    c-9.404,1.526-18.974,2.83-28.442,3.873c-2.745,0.303-4.725,2.773-4.422,5.518s2.758,4.722,5.518,4.422    c9.638-1.063,19.377-2.389,28.948-3.941c105.298-17.08,127.057-3.293,131.521,3.429c3.144,4.729,0.099,9.931-0.147,10.335    c-2.434,3.558-5.472,7.081-9.029,10.475c-1.999,1.905-2.074,5.07-0.168,7.068c0.982,1.031,2.299,1.55,3.619,1.55    c1.239,0,2.481-0.458,3.449-1.382c4.088-3.897,7.6-7.983,10.436-12.143c0.02-0.029,0.039-0.058,0.058-0.086    C486.267,427.841,492.914,417.409,486.196,407.086z M315.302,357.478v-60.386c9.394-1.129,18.831-2.509,28.158-4.118    l14.691,58.336C343.918,353.873,329.551,355.941,315.302,357.478z"/><path fill="#61E8F1" d="M195.824,134.719c2.667,0.714,5.409-0.868,6.125-3.535l14.624-54.542l87.167-49.962l93.484,66.615l31.064,84.324    l-17.625-17.037c-1.985-1.918-5.15-1.866-7.069,0.12c-1.92,1.985-1.866,5.151,0.12,7.07l31.828,30.766v87.198    c0,0.208,0.036,0.405,0.061,0.606c-3.931,0.976-7.408,3.084-10.074,5.968l-12.153-5.323l4.499-13.497    c0.873-2.619-0.542-5.451-3.162-6.324c-2.616-0.873-5.45,0.542-6.324,3.162l-5.942,17.826c-0.817,2.453,0.369,5.124,2.737,6.162    l15.549,6.811c-0.41,1.612-0.651,3.291-0.651,5.028c0,5.567,2.313,10.842,6.191,14.637c-0.422,0.653-0.797,1.335-1.125,2.038    l-15.106-3.463l2.058-10.672c0.523-2.712-1.251-5.334-3.963-5.856c-2.704-0.521-5.333,1.251-5.855,3.963l-2.972,15.413    c-0.511,2.645,1.166,5.219,3.792,5.82l20.704,4.747c0.175,1.054,0.446,2.071,0.807,3.05l-2.388,12.168    c-0.418,2.13,0.586,4.286,2.485,5.338l5.389,2.981c0.768,0.425,1.598,0.626,2.416,0.626c1.76,0,3.467-0.932,4.38-2.58    c1.337-2.416,0.462-5.459-1.954-6.796l-2.202-1.218l0.232-1.186c2.276,1.138,4.833,1.794,7.545,1.794s5.27-0.656,7.545-1.794    l0.232,1.186l-2.202,1.218c-2.416,1.337-3.291,4.38-1.954,6.796c0.913,1.648,2.619,2.58,4.38,2.58    c0.818,0,1.648-0.201,2.416-0.626l5.389-2.981c1.899-1.052,2.903-3.208,2.485-5.338l-2.388-12.168    c0.358-0.975,0.629-1.988,0.805-3.036l20.762-4.761c2.625-0.602,4.302-3.176,3.792-5.82l-2.971-15.412    c-0.522-2.713-3.149-4.483-5.855-3.964c-2.712,0.522-4.486,3.145-3.963,5.856l2.057,10.672l-15.156,3.475    c-0.33-0.707-0.706-1.393-1.131-2.049c3.88-3.796,6.192-9.07,6.192-14.638c0-1.729-0.239-3.401-0.646-5.006l15.6-6.833    c2.368-1.038,3.555-3.709,2.737-6.162l-5.942-17.826c-0.873-2.621-3.708-4.039-6.324-3.162c-2.62,0.873-4.035,3.705-3.162,6.324    l4.499,13.497l-12.193,5.341c-2.656-2.879-6.12-4.988-10.036-5.971c0.025-0.206,0.063-0.408,0.063-0.621v-89.318    c0-0.008-0.002-0.016-0.002-0.024c-0.002-0.309-0.034-0.619-0.094-0.928c-0.021-0.109-0.06-0.21-0.087-0.317    c-0.04-0.153-0.07-0.308-0.126-0.459l-39.16-106.3c-0.348-0.943-0.971-1.76-1.79-2.343l-97.35-69.37    c-1.589-1.134-3.695-1.237-5.388-0.266l-91.75,52.59c-1.155,0.662-1.999,1.757-2.343,3.043l-15.163,56.55    C191.575,131.262,193.157,134.003,195.824,134.719z M450.948,306.156c0,3.989-2.326,7.685-5.927,9.413    c-1.616,0.776-2.692,2.357-2.823,4.145c-0.13,1.788,0.707,3.509,2.193,4.51c1.929,1.299,3.08,3.459,3.08,5.779    c0,0.93-0.187,1.817-0.52,2.63c-0.161,0.263-0.299,0.538-0.409,0.827c-1.202,2.089-3.452,3.501-6.029,3.501    s-4.827-1.412-6.029-3.501c-0.11-0.289-0.248-0.564-0.409-0.827c-0.333-0.813-0.52-1.7-0.52-2.63c0-2.32,1.151-4.48,3.08-5.779    c1.486-1.001,2.323-2.722,2.193-4.51c-0.131-1.787-1.207-3.368-2.823-4.145c-3.6-1.729-5.926-5.423-5.926-9.413    c0-5.753,4.681-10.435,10.434-10.435C446.268,295.722,450.948,300.403,450.948,306.156z"/><path fill="#61E8F1" d="M286.862,299.989c0-3.797-2.068-7.301-5.321-9.102c-1.553-0.895-3.333-1.369-5.149-1.369h-48.59c-2.761,0-5,2.239-5,5    c0,2.762,2.239,5,5,5h48.59c0.088,0,0.136,0.021,0.229,0.075c0.04,0.022,0.241,0.146,0.241,0.396v16.353c0,2.761,2.238,5,5,5    s5-2.239,5-5V299.989z"/><path fill="#61E8F1" d="M217.072,302.749c-2.761,0-5,2.239-5,5v46.09c0,5.773,4.697,10.471,10.47,10.471h53.85    c5.773,0,10.471-4.697,10.471-10.471v-18.605c0-2.762-2.238-5-5-5s-5,2.238-5,5v18.605c0,0.255-0.216,0.471-0.471,0.471h-53.85    c-0.259,0-0.47-0.211-0.47-0.471v-46.09C222.072,304.988,219.833,302.749,217.072,302.749z"/></g></g></svg>